<?xml version="1.0" encoding="us-ascii" standalone="no"?><svg xmlns="http://www.w3.org/2000/svg" xmlns:xlink="http://www.w3.org/1999/xlink" contentStyleType="text/css" height="1791px" preserveAspectRatio="none" style="width:1842px;height:1791px;background:#FFFFFF;" version="1.1" viewBox="0 0 1842 1791" width="1842px" zoomAndPan="magnify"><defs/><g><line style="stroke:#181818;stroke-width:0.5;stroke-dasharray:5.0,5.0;" x1="137" x2="137" y1="81.2969" y2="1711.0703"/><line style="stroke:#181818;stroke-width:0.5;stroke-dasharray:5.0,5.0;" x1="395" x2="395" y1="81.2969" y2="1711.0703"/><line style="stroke:#181818;stroke-width:0.5;stroke-dasharray:5.0,5.0;" x1="515" x2="515" y1="81.2969" y2="1711.0703"/><line style="stroke:#181818;stroke-width:0.5;stroke-dasharray:5.0,5.0;" x1="619" x2="619" y1="81.2969" y2="1711.0703"/><line style="stroke:#181818;stroke-width:0.5;stroke-dasharray:5.0,5.0;" x1="809" x2="809" y1="81.2969" y2="1711.0703"/><line style="stroke:#181818;stroke-width:0.5;stroke-dasharray:5.0,5.0;" x1="1034" x2="1034" y1="81.2969" y2="1711.0703"/><line style="stroke:#181818;stroke-width:0.5;stroke-dasharray:5.0,5.0;" x1="1330.5" x2="1330.5" y1="81.2969" y2="1711.0703"/><line style="stroke:#181818;stroke-width:0.5;stroke-dasharray:5.0,5.0;" x1="1638.5" x2="1638.5" y1="81.2969" y2="1711.0703"/><text fill="#000000" font-family="sans-serif" font-size="14" lengthAdjust="spacing" textLength="259" x="5" y="77.9951">&#1056;&#1091;&#1082;&#1086;&#1074;&#1086;&#1076;&#1080;&#1090;&#1077;&#1083;&#1100; &#1086;&#1090;&#1076;&#1077;&#1083;&#1072; &#1088;&#1072;&#1079;&#1088;&#1072;&#1073;&#1086;&#1090;&#1082;&#1080;</text><ellipse cx="137.5" cy="13.5" fill="#E2E2F0" rx="8" ry="8" style="stroke:#181818;stroke-width:0.5;"/><path d="M137.5,21.5 L137.5,48.5 M124.5,29.5 L150.5,29.5 M137.5,48.5 L124.5,63.5 M137.5,48.5 L150.5,63.5 " fill="none" style="stroke:#181818;stroke-width:0.5;"/><text fill="#000000" font-family="sans-serif" font-size="14" lengthAdjust="spacing" textLength="259" x="5" y="1723.0654">&#1056;&#1091;&#1082;&#1086;&#1074;&#1086;&#1076;&#1080;&#1090;&#1077;&#1083;&#1100; &#1086;&#1090;&#1076;&#1077;&#1083;&#1072; &#1088;&#1072;&#1079;&#1088;&#1072;&#1073;&#1086;&#1090;&#1082;&#1080;</text><ellipse cx="137.5" cy="1734.8672" fill="#E2E2F0" rx="8" ry="8" style="stroke:#181818;stroke-width:0.5;"/><path d="M137.5,1742.8672 L137.5,1769.8672 M124.5,1750.8672 L150.5,1750.8672 M137.5,1769.8672 L124.5,1784.8672 M137.5,1769.8672 L150.5,1784.8672 " fill="none" style="stroke:#181818;stroke-width:0.5;"/><text fill="#000000" font-family="sans-serif" font-size="14" lengthAdjust="spacing" textLength="103" x="341" y="77.9951">&#1055;&#1088;&#1086;&#1075;&#1088;&#1072;&#1084;&#1084;&#1080;&#1089;&#1090;</text><ellipse cx="395.5" cy="13.5" fill="#E2E2F0" rx="8" ry="8" style="stroke:#181818;stroke-width:0.5;"/><path d="M395.5,21.5 L395.5,48.5 M382.5,29.5 L408.5,29.5 M395.5,48.5 L382.5,63.5 M395.5,48.5 L408.5,63.5 " fill="none" style="stroke:#181818;stroke-width:0.5;"/><text fill="#000000" font-family="sans-serif" font-size="14" lengthAdjust="spacing" textLength="103" x="341" y="1723.0654">&#1055;&#1088;&#1086;&#1075;&#1088;&#1072;&#1084;&#1084;&#1080;&#1089;&#1090;</text><ellipse cx="395.5" cy="1734.8672" fill="#E2E2F0" rx="8" ry="8" style="stroke:#181818;stroke-width:0.5;"/><path d="M395.5,1742.8672 L395.5,1769.8672 M382.5,1750.8672 L408.5,1750.8672 M395.5,1769.8672 L382.5,1784.8672 M395.5,1769.8672 L408.5,1784.8672 " fill="none" style="stroke:#181818;stroke-width:0.5;"/><text fill="#000000" font-family="sans-serif" font-size="14" lengthAdjust="spacing" textLength="104" x="460" y="77.9951">&#1058;&#1077;&#1089;&#1090;&#1080;&#1088;&#1086;&#1074;&#1097;&#1080;&#1082;</text><ellipse cx="515" cy="13.5" fill="#E2E2F0" rx="8" ry="8" style="stroke:#181818;stroke-width:0.5;"/><path d="M515,21.5 L515,48.5 M502,29.5 L528,29.5 M515,48.5 L502,63.5 M515,48.5 L528,63.5 " fill="none" style="stroke:#181818;stroke-width:0.5;"/><text fill="#000000" font-family="sans-serif" font-size="14" lengthAdjust="spacing" textLength="104" x="460" y="1723.0654">&#1058;&#1077;&#1089;&#1090;&#1080;&#1088;&#1086;&#1074;&#1097;&#1080;&#1082;</text><ellipse cx="515" cy="1734.8672" fill="#E2E2F0" rx="8" ry="8" style="stroke:#181818;stroke-width:0.5;"/><path d="M515,1742.8672 L515,1769.8672 M502,1750.8672 L528,1750.8672 M515,1769.8672 L502,1784.8672 M515,1769.8672 L528,1784.8672 " fill="none" style="stroke:#181818;stroke-width:0.5;"/><text fill="#000000" font-family="sans-serif" font-size="14" lengthAdjust="spacing" textLength="73" x="580" y="77.9951">&#1044;&#1080;&#1079;&#1072;&#1081;&#1085;&#1077;&#1088;</text><ellipse cx="619.5" cy="13.5" fill="#E2E2F0" rx="8" ry="8" style="stroke:#181818;stroke-width:0.5;"/><path d="M619.5,21.5 L619.5,48.5 M606.5,29.5 L632.5,29.5 M619.5,48.5 L606.5,63.5 M619.5,48.5 L632.5,63.5 " fill="none" style="stroke:#181818;stroke-width:0.5;"/><text fill="#000000" font-family="sans-serif" font-size="14" lengthAdjust="spacing" textLength="73" x="580" y="1723.0654">&#1044;&#1080;&#1079;&#1072;&#1081;&#1085;&#1077;&#1088;</text><ellipse cx="619.5" cy="1734.8672" fill="#E2E2F0" rx="8" ry="8" style="stroke:#181818;stroke-width:0.5;"/><path d="M619.5,1742.8672 L619.5,1769.8672 M606.5,1750.8672 L632.5,1750.8672 M619.5,1769.8672 L606.5,1784.8672 M619.5,1769.8672 L632.5,1784.8672 " fill="none" style="stroke:#181818;stroke-width:0.5;"/><text fill="#000000" font-family="sans-serif" font-size="14" lengthAdjust="spacing" textLength="274" x="669" y="77.9951">&#1056;&#1091;&#1082;&#1086;&#1074;&#1086;&#1076;&#1080;&#1090;&#1077;&#1083;&#1100; &#1086;&#1090;&#1076;&#1077;&#1083;&#1072; &#1101;&#1082;&#1089;&#1087;&#1083;&#1091;&#1072;&#1090;&#1072;&#1094;&#1080;&#1080;</text><ellipse cx="809" cy="13.5" fill="#E2E2F0" rx="8" ry="8" style="stroke:#181818;stroke-width:0.5;"/><path d="M809,21.5 L809,48.5 M796,29.5 L822,29.5 M809,48.5 L796,63.5 M809,48.5 L822,63.5 " fill="none" style="stroke:#181818;stroke-width:0.5;"/><text fill="#000000" font-family="sans-serif" font-size="14" lengthAdjust="spacing" textLength="274" x="669" y="1723.0654">&#1056;&#1091;&#1082;&#1086;&#1074;&#1086;&#1076;&#1080;&#1090;&#1077;&#1083;&#1100; &#1086;&#1090;&#1076;&#1077;&#1083;&#1072; &#1101;&#1082;&#1089;&#1087;&#1083;&#1091;&#1072;&#1090;&#1072;&#1094;&#1080;&#1080;</text><ellipse cx="809" cy="1734.8672" fill="#E2E2F0" rx="8" ry="8" style="stroke:#181818;stroke-width:0.5;"/><path d="M809,1742.8672 L809,1769.8672 M796,1750.8672 L822,1750.8672 M809,1769.8672 L796,1784.8672 M809,1769.8672 L822,1784.8672 " fill="none" style="stroke:#181818;stroke-width:0.5;"/><text fill="#000000" font-family="sans-serif" font-size="14" lengthAdjust="spacing" textLength="145" x="959" y="77.9951">&#1040;&#1076;&#1084;&#1080;&#1085;&#1080;&#1089;&#1090;&#1088;&#1072;&#1090;&#1086;&#1088; &#1048;&#1057;</text><ellipse cx="1034.5" cy="13.5" fill="#E2E2F0" rx="8" ry="8" style="stroke:#181818;stroke-width:0.5;"/><path d="M1034.5,21.5 L1034.5,48.5 M1021.5,29.5 L1047.5,29.5 M1034.5,48.5 L1021.5,63.5 M1034.5,48.5 L1047.5,63.5 " fill="none" style="stroke:#181818;stroke-width:0.5;"/><text fill="#000000" font-family="sans-serif" font-size="14" lengthAdjust="spacing" textLength="145" x="959" y="1723.0654">&#1040;&#1076;&#1084;&#1080;&#1085;&#1080;&#1089;&#1090;&#1088;&#1072;&#1090;&#1086;&#1088; &#1048;&#1057;</text><ellipse cx="1034.5" cy="1734.8672" fill="#E2E2F0" rx="8" ry="8" style="stroke:#181818;stroke-width:0.5;"/><path d="M1034.5,1742.8672 L1034.5,1769.8672 M1021.5,1750.8672 L1047.5,1750.8672 M1034.5,1769.8672 L1021.5,1784.8672 M1034.5,1769.8672 L1047.5,1784.8672 " fill="none" style="stroke:#181818;stroke-width:0.5;"/><text fill="#000000" font-family="sans-serif" font-size="14" lengthAdjust="spacing" textLength="208" x="1223.5" y="77.9951">&#1057;&#1080;&#1089;&#1090;&#1077;&#1084;&#1085;&#1099;&#1081; &#1072;&#1076;&#1084;&#1080;&#1085;&#1080;&#1089;&#1090;&#1088;&#1072;&#1090;&#1086;&#1088;</text><ellipse cx="1330.5" cy="13.5" fill="#E2E2F0" rx="8" ry="8" style="stroke:#181818;stroke-width:0.5;"/><path d="M1330.5,21.5 L1330.5,48.5 M1317.5,29.5 L1343.5,29.5 M1330.5,48.5 L1317.5,63.5 M1330.5,48.5 L1343.5,63.5 " fill="none" style="stroke:#181818;stroke-width:0.5;"/><text fill="#000000" font-family="sans-serif" font-size="14" lengthAdjust="spacing" textLength="208" x="1223.5" y="1723.0654">&#1057;&#1080;&#1089;&#1090;&#1077;&#1084;&#1085;&#1099;&#1081; &#1072;&#1076;&#1084;&#1080;&#1085;&#1080;&#1089;&#1090;&#1088;&#1072;&#1090;&#1086;&#1088;</text><ellipse cx="1330.5" cy="1734.8672" fill="#E2E2F0" rx="8" ry="8" style="stroke:#181818;stroke-width:0.5;"/><path d="M1330.5,1742.8672 L1330.5,1769.8672 M1317.5,1750.8672 L1343.5,1750.8672 M1330.5,1769.8672 L1317.5,1784.8672 M1330.5,1769.8672 L1343.5,1784.8672 " fill="none" style="stroke:#181818;stroke-width:0.5;"/><text fill="#000000" font-family="sans-serif" font-size="14" lengthAdjust="spacing" textLength="377" x="1447.5" y="77.9951">&#1056;&#1091;&#1082;&#1086;&#1074;&#1086;&#1076;&#1080;&#1090;&#1077;&#1083;&#1100; &#1086;&#1090;&#1076;&#1077;&#1083;&#1072; &#1087;&#1086;&#1076;&#1076;&#1077;&#1088;&#1078;&#1082;&#1080; &#1087;&#1086;&#1083;&#1100;&#1079;&#1086;&#1074;&#1072;&#1090;&#1077;&#1083;&#1077;&#1081;</text><ellipse cx="1639" cy="13.5" fill="#E2E2F0" rx="8" ry="8" style="stroke:#181818;stroke-width:0.5;"/><path d="M1639,21.5 L1639,48.5 M1626,29.5 L1652,29.5 M1639,48.5 L1626,63.5 M1639,48.5 L1652,63.5 " fill="none" style="stroke:#181818;stroke-width:0.5;"/><text fill="#000000" font-family="sans-serif" font-size="14" lengthAdjust="spacing" textLength="377" x="1447.5" y="1723.0654">&#1056;&#1091;&#1082;&#1086;&#1074;&#1086;&#1076;&#1080;&#1090;&#1077;&#1083;&#1100; &#1086;&#1090;&#1076;&#1077;&#1083;&#1072; &#1087;&#1086;&#1076;&#1076;&#1077;&#1088;&#1078;&#1082;&#1080; &#1087;&#1086;&#1083;&#1100;&#1079;&#1086;&#1074;&#1072;&#1090;&#1077;&#1083;&#1077;&#1081;</text><ellipse cx="1639" cy="1734.8672" fill="#E2E2F0" rx="8" ry="8" style="stroke:#181818;stroke-width:0.5;"/><path d="M1639,1742.8672 L1639,1769.8672 M1626,1750.8672 L1652,1750.8672 M1639,1769.8672 L1626,1784.8672 M1639,1769.8672 L1652,1784.8672 " fill="none" style="stroke:#181818;stroke-width:0.5;"/><rect fill="#EEEEEE" height="3" style="stroke:#EEEEEE;stroke-width:1.0;" width="1835.5" x="0" y="111.8633"/><line style="stroke:#000000;stroke-width:1.0;" x1="0" x2="1835.5" y1="111.8633" y2="111.8633"/><line style="stroke:#000000;stroke-width:1.0;" x1="0" x2="1835.5" y1="114.8633" y2="114.8633"/><rect fill="#EEEEEE" height="23.1328" style="stroke:#000000;stroke-width:2.0;" width="183" x="826.25" y="101.2969"/><text fill="#000000" font-family="sans-serif" font-size="13" font-weight="bold" lengthAdjust="spacing" textLength="164" x="832.25" y="117.3638">&#1057;&#1086;&#1079;&#1076;&#1072;&#1085;&#1080;&#1077; &#1082;&#1086;&#1085;&#1094;&#1077;&#1087;&#1094;&#1080;&#1080;</text><polygon fill="#181818" points="797,151.5625,807,155.5625,797,159.5625,801,155.5625" style="stroke:#181818;stroke-width:1.0;"/><line style="stroke:#181818;stroke-width:1.0;" x1="137.5" x2="803" y1="155.5625" y2="155.5625"/><text fill="#000000" font-family="sans-serif" font-size="13" lengthAdjust="spacing" textLength="195" x="144.5" y="150.4966">&#1054;&#1087;&#1088;&#1077;&#1076;&#1077;&#1083;&#1077;&#1085;&#1080;&#1077; &#1094;&#1077;&#1083;&#1077;&#1081; &#1080; &#1079;&#1072;&#1076;&#1072;&#1095;</text><polygon fill="#181818" points="148.5,180.6953,138.5,184.6953,148.5,188.6953,144.5,184.6953" style="stroke:#181818;stroke-width:1.0;"/><line style="stroke:#181818;stroke-width:1.0;" x1="142.5" x2="808" y1="184.6953" y2="184.6953"/><text fill="#000000" font-family="sans-serif" font-size="13" lengthAdjust="spacing" textLength="129" x="154.5" y="179.6294">&#1047;&#1072;&#1076;&#1072;&#1095;&#1080; &#1074;&#1099;&#1087;&#1086;&#1083;&#1085;&#1077;&#1085;&#1099;</text><polygon fill="#181818" points="797,209.8281,807,213.8281,797,217.8281,801,213.8281" style="stroke:#181818;stroke-width:1.0;"/><line style="stroke:#181818;stroke-width:1.0;" x1="137.5" x2="803" y1="213.8281" y2="213.8281"/><text fill="#000000" font-family="sans-serif" font-size="13" lengthAdjust="spacing" textLength="95" x="144.5" y="208.7622">&#1040;&#1085;&#1072;&#1083;&#1080;&#1079; &#1088;&#1099;&#1085;&#1082;&#1072;</text><polygon fill="#181818" points="148.5,238.9609,138.5,242.9609,148.5,246.9609,144.5,242.9609" style="stroke:#181818;stroke-width:1.0;"/><line style="stroke:#181818;stroke-width:1.0;" x1="142.5" x2="808" y1="242.9609" y2="242.9609"/><text fill="#000000" font-family="sans-serif" font-size="13" lengthAdjust="spacing" textLength="118" x="154.5" y="237.895">&#1040;&#1085;&#1072;&#1083;&#1080;&#1079; &#1079;&#1072;&#1074;&#1077;&#1088;&#1096;&#1077;&#1085;</text><line style="stroke:#181818;stroke-width:1.0;" x1="137.5" x2="179.5" y1="272.0938" y2="272.0938"/><line style="stroke:#181818;stroke-width:1.0;" x1="179.5" x2="179.5" y1="272.0938" y2="285.0938"/><line style="stroke:#181818;stroke-width:1.0;" x1="138.5" x2="179.5" y1="285.0938" y2="285.0938"/><polygon fill="#181818" points="148.5,281.0938,138.5,285.0938,148.5,289.0938,144.5,285.0938" style="stroke:#181818;stroke-width:1.0;"/><text fill="#000000" font-family="sans-serif" font-size="13" lengthAdjust="spacing" textLength="231" x="144.5" y="267.0278">&#1054;&#1087;&#1088;&#1077;&#1076;&#1077;&#1083;&#1077;&#1085;&#1080;&#1077; &#1094;&#1077;&#1083;&#1077;&#1074;&#1086;&#1081; &#1072;&#1091;&#1076;&#1080;&#1090;&#1086;&#1088;&#1080;&#1080;</text><line style="stroke:#181818;stroke-width:1.0;" x1="137.5" x2="179.5" y1="314.2266" y2="314.2266"/><line style="stroke:#181818;stroke-width:1.0;" x1="179.5" x2="179.5" y1="314.2266" y2="327.2266"/><line style="stroke:#181818;stroke-width:1.0;" x1="138.5" x2="179.5" y1="327.2266" y2="327.2266"/><polygon fill="#181818" points="148.5,323.2266,138.5,327.2266,148.5,331.2266,144.5,327.2266" style="stroke:#181818;stroke-width:1.0;"/><text fill="#000000" font-family="sans-serif" font-size="13" lengthAdjust="spacing" textLength="220" x="144.5" y="309.1606">&#1062;&#1077;&#1083;&#1077;&#1074;&#1072;&#1103; &#1072;&#1091;&#1076;&#1080;&#1090;&#1086;&#1088;&#1080;&#1103; &#1086;&#1087;&#1088;&#1077;&#1076;&#1077;&#1083;&#1077;&#1085;&#1072;</text><rect fill="#EEEEEE" height="3" style="stroke:#EEEEEE;stroke-width:1.0;" width="1835.5" x="0" y="355.793"/><line style="stroke:#000000;stroke-width:1.0;" x1="0" x2="1835.5" y1="355.793" y2="355.793"/><line style="stroke:#000000;stroke-width:1.0;" x1="0" x2="1835.5" y1="358.793" y2="358.793"/><rect fill="#EEEEEE" height="23.1328" style="stroke:#000000;stroke-width:2.0;" width="129" x="853.25" y="345.2266"/><text fill="#000000" font-family="sans-serif" font-size="13" font-weight="bold" lengthAdjust="spacing" textLength="110" x="859.25" y="361.2935">&#1055;&#1083;&#1072;&#1085;&#1080;&#1088;&#1086;&#1074;&#1072;&#1085;&#1080;&#1077;</text><polygon fill="#181818" points="383.5,395.4922,393.5,399.4922,383.5,403.4922,387.5,399.4922" style="stroke:#181818;stroke-width:1.0;"/><line style="stroke:#181818;stroke-width:1.0;" x1="137.5" x2="389.5" y1="399.4922" y2="399.4922"/><text fill="#000000" font-family="sans-serif" font-size="13" lengthAdjust="spacing" textLength="182" x="144.5" y="394.4263">&#1056;&#1072;&#1079;&#1088;&#1072;&#1073;&#1086;&#1090;&#1082;&#1072; &#1087;&#1083;&#1072;&#1085;&#1072; &#1087;&#1088;&#1086;&#1077;&#1082;&#1090;&#1072;</text><polygon fill="#181818" points="148.5,424.625,138.5,428.625,148.5,432.625,144.5,428.625" style="stroke:#181818;stroke-width:1.0;"/><line style="stroke:#181818;stroke-width:1.0;" x1="142.5" x2="394.5" y1="428.625" y2="428.625"/><text fill="#000000" font-family="sans-serif" font-size="13" lengthAdjust="spacing" textLength="116" x="154.5" y="423.5591">&#1055;&#1083;&#1072;&#1085; &#1088;&#1072;&#1079;&#1088;&#1072;&#1073;&#1086;&#1090;&#1072;&#1085;</text><polygon fill="#181818" points="383.5,453.7578,393.5,457.7578,383.5,461.7578,387.5,457.7578" style="stroke:#181818;stroke-width:1.0;"/><line style="stroke:#181818;stroke-width:1.0;" x1="137.5" x2="389.5" y1="457.7578" y2="457.7578"/><text fill="#000000" font-family="sans-serif" font-size="13" lengthAdjust="spacing" textLength="234" x="144.5" y="452.6919">&#1042;&#1099;&#1073;&#1086;&#1088; &#1090;&#1077;&#1093;&#1085;&#1086;&#1083;&#1086;&#1075;&#1080;&#1081; &#1080; &#1080;&#1085;&#1089;&#1090;&#1088;&#1091;&#1084;&#1077;&#1085;&#1090;&#1086;&#1074;</text><polygon fill="#181818" points="148.5,482.8906,138.5,486.8906,148.5,490.8906,144.5,486.8906" style="stroke:#181818;stroke-width:1.0;"/><line style="stroke:#181818;stroke-width:1.0;" x1="142.5" x2="394.5" y1="486.8906" y2="486.8906"/><text fill="#000000" font-family="sans-serif" font-size="13" lengthAdjust="spacing" textLength="143" x="154.5" y="481.8247">&#1058;&#1077;&#1093;&#1085;&#1086;&#1083;&#1086;&#1075;&#1080;&#1080; &#1074;&#1099;&#1073;&#1088;&#1072;&#1085;&#1099;</text><polygon fill="#181818" points="383.5,512.0234,393.5,516.0234,383.5,520.0234,387.5,516.0234" style="stroke:#181818;stroke-width:1.0;"/><line style="stroke:#181818;stroke-width:1.0;" x1="137.5" x2="389.5" y1="516.0234" y2="516.0234"/><text fill="#000000" font-family="sans-serif" font-size="13" lengthAdjust="spacing" textLength="224" x="144.5" y="510.9575">&#1054;&#1087;&#1088;&#1077;&#1076;&#1077;&#1083;&#1077;&#1085;&#1080;&#1077; &#1101;&#1090;&#1072;&#1087;&#1086;&#1074; &#1088;&#1072;&#1079;&#1088;&#1072;&#1073;&#1086;&#1090;&#1082;&#1080;</text><polygon fill="#181818" points="148.5,541.1563,138.5,545.1563,148.5,549.1563,144.5,545.1563" style="stroke:#181818;stroke-width:1.0;"/><line style="stroke:#181818;stroke-width:1.0;" x1="142.5" x2="394.5" y1="545.1563" y2="545.1563"/><text fill="#000000" font-family="sans-serif" font-size="13" lengthAdjust="spacing" textLength="131" x="154.5" y="540.0903">&#1069;&#1090;&#1072;&#1087;&#1099; &#1086;&#1087;&#1088;&#1077;&#1076;&#1077;&#1083;&#1077;&#1085;&#1099;</text><polygon fill="#181818" points="503,570.2891,513,574.2891,503,578.2891,507,574.2891" style="stroke:#181818;stroke-width:1.0;"/><line style="stroke:#181818;stroke-width:1.0;" x1="137.5" x2="509" y1="574.2891" y2="574.2891"/><text fill="#000000" font-family="sans-serif" font-size="13" lengthAdjust="spacing" textLength="235" x="144.5" y="569.2231">&#1054;&#1087;&#1088;&#1077;&#1076;&#1077;&#1083;&#1077;&#1085;&#1080;&#1077; &#1092;&#1091;&#1085;&#1082;&#1094;&#1080;&#1086;&#1085;&#1072;&#1083;&#1100;&#1085;&#1086;&#1089;&#1090;&#1077;&#1081;</text><polygon fill="#181818" points="148.5,599.4219,138.5,603.4219,148.5,607.4219,144.5,603.4219" style="stroke:#181818;stroke-width:1.0;"/><line style="stroke:#181818;stroke-width:1.0;" x1="142.5" x2="514" y1="603.4219" y2="603.4219"/><text fill="#000000" font-family="sans-serif" font-size="13" lengthAdjust="spacing" textLength="219" x="154.5" y="598.356">&#1060;&#1091;&#1085;&#1082;&#1094;&#1080;&#1086;&#1085;&#1072;&#1083;&#1100;&#1085;&#1086;&#1089;&#1090;&#1080; &#1086;&#1087;&#1088;&#1077;&#1076;&#1077;&#1083;&#1077;&#1085;&#1099;</text><rect fill="#EEEEEE" height="3" style="stroke:#EEEEEE;stroke-width:1.0;" width="1835.5" x="0" y="631.9883"/><line style="stroke:#000000;stroke-width:1.0;" x1="0" x2="1835.5" y1="631.9883" y2="631.9883"/><line style="stroke:#000000;stroke-width:1.0;" x1="0" x2="1835.5" y1="634.9883" y2="634.9883"/><rect fill="#EEEEEE" height="23.1328" style="stroke:#000000;stroke-width:2.0;" width="75" x="880.25" y="621.4219"/><text fill="#000000" font-family="sans-serif" font-size="13" font-weight="bold" lengthAdjust="spacing" textLength="56" x="886.25" y="637.4888">&#1044;&#1080;&#1079;&#1072;&#1081;&#1085;</text><polygon fill="#181818" points="607.5,671.6875,617.5,675.6875,607.5,679.6875,611.5,675.6875" style="stroke:#181818;stroke-width:1.0;"/><line style="stroke:#181818;stroke-width:1.0;" x1="137.5" x2="613.5" y1="675.6875" y2="675.6875"/><text fill="#000000" font-family="sans-serif" font-size="13" lengthAdjust="spacing" textLength="212" x="144.5" y="670.6216">&#1057;&#1086;&#1079;&#1076;&#1072;&#1085;&#1080;&#1077; &#1076;&#1080;&#1079;&#1072;&#1081;&#1085;&#1072; &#1080;&#1085;&#1090;&#1077;&#1088;&#1092;&#1077;&#1081;&#1089;&#1072;</text><polygon fill="#181818" points="148.5,700.8203,138.5,704.8203,148.5,708.8203,144.5,704.8203" style="stroke:#181818;stroke-width:1.0;"/><line style="stroke:#181818;stroke-width:1.0;" x1="142.5" x2="618.5" y1="704.8203" y2="704.8203"/><text fill="#000000" font-family="sans-serif" font-size="13" lengthAdjust="spacing" textLength="102" x="154.5" y="699.7544">&#1044;&#1080;&#1079;&#1072;&#1081;&#1085; &#1089;&#1086;&#1079;&#1076;&#1072;&#1085;</text><polygon fill="#181818" points="1022.5,729.9531,1032.5,733.9531,1022.5,737.9531,1026.5,733.9531" style="stroke:#181818;stroke-width:1.0;"/><line style="stroke:#181818;stroke-width:1.0;" x1="137.5" x2="1028.5" y1="733.9531" y2="733.9531"/><text fill="#000000" font-family="sans-serif" font-size="13" lengthAdjust="spacing" textLength="291" x="144.5" y="728.8872">&#1056;&#1072;&#1079;&#1088;&#1072;&#1073;&#1086;&#1090;&#1082;&#1072; &#1080;&#1085;&#1092;&#1086;&#1088;&#1084;&#1072;&#1094;&#1080;&#1086;&#1085;&#1085;&#1086;&#1081; &#1072;&#1088;&#1093;&#1080;&#1090;&#1077;&#1082;&#1090;&#1091;&#1088;&#1099;</text><polygon fill="#181818" points="148.5,759.0859,138.5,763.0859,148.5,767.0859,144.5,763.0859" style="stroke:#181818;stroke-width:1.0;"/><line style="stroke:#181818;stroke-width:1.0;" x1="142.5" x2="1033.5" y1="763.0859" y2="763.0859"/><text fill="#000000" font-family="sans-serif" font-size="13" lengthAdjust="spacing" textLength="147" x="154.5" y="758.02">&#1040;&#1088;&#1093;&#1080;&#1090;&#1077;&#1082;&#1090;&#1091;&#1088;&#1072; &#1089;&#1086;&#1079;&#1076;&#1072;&#1085;&#1072;</text><polygon fill="#181818" points="383.5,788.2188,393.5,792.2188,383.5,796.2188,387.5,792.2188" style="stroke:#181818;stroke-width:1.0;"/><line style="stroke:#181818;stroke-width:1.0;" x1="137.5" x2="389.5" y1="792.2188" y2="792.2188"/><text fill="#000000" font-family="sans-serif" font-size="13" lengthAdjust="spacing" textLength="152" x="144.5" y="787.1528">&#1059;&#1090;&#1074;&#1077;&#1088;&#1078;&#1076;&#1077;&#1085;&#1080;&#1077; &#1076;&#1080;&#1079;&#1072;&#1081;&#1085;&#1072;</text><polygon fill="#181818" points="148.5,817.3516,138.5,821.3516,148.5,825.3516,144.5,821.3516" style="stroke:#181818;stroke-width:1.0;"/><line style="stroke:#181818;stroke-width:1.0;" x1="142.5" x2="394.5" y1="821.3516" y2="821.3516"/><text fill="#000000" font-family="sans-serif" font-size="13" lengthAdjust="spacing" textLength="129" x="154.5" y="816.2856">&#1044;&#1080;&#1079;&#1072;&#1081;&#1085; &#1091;&#1090;&#1074;&#1077;&#1088;&#1078;&#1076;&#1077;&#1085;</text><rect fill="#EEEEEE" height="3" style="stroke:#EEEEEE;stroke-width:1.0;" width="1835.5" x="0" y="849.918"/><line style="stroke:#000000;stroke-width:1.0;" x1="0" x2="1835.5" y1="849.918" y2="849.918"/><line style="stroke:#000000;stroke-width:1.0;" x1="0" x2="1835.5" y1="852.918" y2="852.918"/><rect fill="#EEEEEE" height="23.1328" style="stroke:#000000;stroke-width:2.0;" width="111" x="862.25" y="839.3516"/><text fill="#000000" font-family="sans-serif" font-size="13" font-weight="bold" lengthAdjust="spacing" textLength="92" x="868.25" y="855.4185">&#1056;&#1072;&#1079;&#1088;&#1072;&#1073;&#1086;&#1090;&#1082;&#1072;</text><polygon fill="#181818" points="383.5,889.6172,393.5,893.6172,383.5,897.6172,387.5,893.6172" style="stroke:#181818;stroke-width:1.0;"/><line style="stroke:#181818;stroke-width:1.0;" x1="137.5" x2="389.5" y1="893.6172" y2="893.6172"/><text fill="#000000" font-family="sans-serif" font-size="13" lengthAdjust="spacing" textLength="192" x="144.5" y="888.5513">&#1053;&#1072;&#1087;&#1080;&#1089;&#1072;&#1085;&#1080;&#1077; &#1082;&#1086;&#1076;&#1072; (&#1092;&#1088;&#1086;&#1085;&#1090;&#1077;&#1085;&#1076;)</text><polygon fill="#181818" points="148.5,918.75,138.5,922.75,148.5,926.75,144.5,922.75" style="stroke:#181818;stroke-width:1.0;"/><line style="stroke:#181818;stroke-width:1.0;" x1="142.5" x2="394.5" y1="922.75" y2="922.75"/><text fill="#000000" font-family="sans-serif" font-size="13" lengthAdjust="spacing" textLength="168" x="154.5" y="917.6841">&#1050;&#1086;&#1076; &#1085;&#1072;&#1087;&#1080;&#1089;&#1072;&#1085; (&#1092;&#1088;&#1086;&#1085;&#1090;&#1077;&#1085;&#1076;)</text><polygon fill="#181818" points="383.5,947.8828,393.5,951.8828,383.5,955.8828,387.5,951.8828" style="stroke:#181818;stroke-width:1.0;"/><line style="stroke:#181818;stroke-width:1.0;" x1="137.5" x2="389.5" y1="951.8828" y2="951.8828"/><text fill="#000000" font-family="sans-serif" font-size="13" lengthAdjust="spacing" textLength="174" x="144.5" y="946.8169">&#1053;&#1072;&#1087;&#1080;&#1089;&#1072;&#1085;&#1080;&#1077; &#1082;&#1086;&#1076;&#1072; (&#1073;&#1077;&#1082;&#1077;&#1085;&#1076;)</text><polygon fill="#181818" points="148.5,977.0156,138.5,981.0156,148.5,985.0156,144.5,981.0156" style="stroke:#181818;stroke-width:1.0;"/><line style="stroke:#181818;stroke-width:1.0;" x1="142.5" x2="394.5" y1="981.0156" y2="981.0156"/><text fill="#000000" font-family="sans-serif" font-size="13" lengthAdjust="spacing" textLength="150" x="154.5" y="975.9497">&#1050;&#1086;&#1076; &#1085;&#1072;&#1087;&#1080;&#1089;&#1072;&#1085; (&#1073;&#1077;&#1082;&#1077;&#1085;&#1076;)</text><polygon fill="#181818" points="1022.5,1006.1484,1032.5,1010.1484,1022.5,1014.1484,1026.5,1010.1484" style="stroke:#181818;stroke-width:1.0;"/><line style="stroke:#181818;stroke-width:1.0;" x1="137.5" x2="1028.5" y1="1010.1484" y2="1010.1484"/><text fill="#000000" font-family="sans-serif" font-size="13" lengthAdjust="spacing" textLength="171" x="144.5" y="1005.0825">&#1056;&#1072;&#1079;&#1088;&#1072;&#1073;&#1086;&#1090;&#1082;&#1072; &#1073;&#1072;&#1079;&#1099; &#1076;&#1072;&#1085;&#1085;&#1099;&#1093;</text><polygon fill="#181818" points="148.5,1035.2813,138.5,1039.2813,148.5,1043.2813,144.5,1039.2813" style="stroke:#181818;stroke-width:1.0;"/><line style="stroke:#181818;stroke-width:1.0;" x1="142.5" x2="1033.5" y1="1039.2813" y2="1039.2813"/><text fill="#000000" font-family="sans-serif" font-size="13" lengthAdjust="spacing" textLength="147" x="154.5" y="1034.2153">&#1041;&#1072;&#1079;&#1072; &#1076;&#1072;&#1085;&#1085;&#1099;&#1093; &#1089;&#1086;&#1079;&#1076;&#1072;&#1085;&#1072;</text><polygon fill="#181818" points="503,1064.4141,513,1068.4141,503,1072.4141,507,1068.4141" style="stroke:#181818;stroke-width:1.0;"/><line style="stroke:#181818;stroke-width:1.0;" x1="137.5" x2="509" y1="1068.4141" y2="1068.4141"/><text fill="#000000" font-family="sans-serif" font-size="13" lengthAdjust="spacing" textLength="184" x="144.5" y="1063.3481">&#1058;&#1077;&#1089;&#1090;&#1080;&#1088;&#1086;&#1074;&#1072;&#1085;&#1080;&#1077; &#1082;&#1086;&#1084;&#1087;&#1086;&#1085;&#1077;&#1085;&#1090;&#1086;&#1074;</text><polygon fill="#181818" points="148.5,1093.5469,138.5,1097.5469,148.5,1101.5469,144.5,1097.5469" style="stroke:#181818;stroke-width:1.0;"/><line style="stroke:#181818;stroke-width:1.0;" x1="142.5" x2="514" y1="1097.5469" y2="1097.5469"/><text fill="#000000" font-family="sans-serif" font-size="13" lengthAdjust="spacing" textLength="197" x="154.5" y="1092.481">&#1050;&#1086;&#1084;&#1087;&#1086;&#1085;&#1077;&#1085;&#1090;&#1099; &#1087;&#1088;&#1086;&#1090;&#1077;&#1089;&#1090;&#1080;&#1088;&#1086;&#1074;&#1072;&#1085;&#1099;</text><rect fill="#EEEEEE" height="3" style="stroke:#EEEEEE;stroke-width:1.0;" width="1835.5" x="0" y="1126.1133"/><line style="stroke:#000000;stroke-width:1.0;" x1="0" x2="1835.5" y1="1126.1133" y2="1126.1133"/><line style="stroke:#000000;stroke-width:1.0;" x1="0" x2="1835.5" y1="1129.1133" y2="1129.1133"/><rect fill="#EEEEEE" height="23.1328" style="stroke:#000000;stroke-width:2.0;" width="128" x="853.75" y="1115.5469"/><text fill="#000000" font-family="sans-serif" font-size="13" font-weight="bold" lengthAdjust="spacing" textLength="109" x="859.75" y="1131.6138">&#1058;&#1077;&#1089;&#1090;&#1080;&#1088;&#1086;&#1074;&#1072;&#1085;&#1080;&#1077;</text><polygon fill="#181818" points="503,1165.8125,513,1169.8125,503,1173.8125,507,1169.8125" style="stroke:#181818;stroke-width:1.0;"/><line style="stroke:#181818;stroke-width:1.0;" x1="137.5" x2="509" y1="1169.8125" y2="1169.8125"/><text fill="#000000" font-family="sans-serif" font-size="13" lengthAdjust="spacing" textLength="175" x="144.5" y="1164.7466">&#1058;&#1077;&#1089;&#1090;&#1080;&#1088;&#1086;&#1074;&#1072;&#1085;&#1080;&#1077; &#1090;&#1088;&#1077;&#1073;&#1086;&#1074;&#1072;&#1085;&#1080;&#1081;</text><polygon fill="#181818" points="148.5,1194.9453,138.5,1198.9453,148.5,1202.9453,144.5,1198.9453" style="stroke:#181818;stroke-width:1.0;"/><line style="stroke:#181818;stroke-width:1.0;" x1="142.5" x2="514" y1="1198.9453" y2="1198.9453"/><text fill="#000000" font-family="sans-serif" font-size="13" lengthAdjust="spacing" textLength="192" x="154.5" y="1193.8794">&#1058;&#1088;&#1077;&#1073;&#1086;&#1074;&#1072;&#1085;&#1080;&#1103; &#1087;&#1088;&#1086;&#1090;&#1077;&#1089;&#1090;&#1080;&#1088;&#1086;&#1074;&#1072;&#1085;&#1099;</text><polygon fill="#181818" points="503,1224.0781,513,1228.0781,503,1232.0781,507,1228.0781" style="stroke:#181818;stroke-width:1.0;"/><line style="stroke:#181818;stroke-width:1.0;" x1="137.5" x2="509" y1="1228.0781" y2="1228.0781"/><text fill="#000000" font-family="sans-serif" font-size="13" lengthAdjust="spacing" textLength="317" x="144.5" y="1223.0122">&#1055;&#1088;&#1086;&#1074;&#1077;&#1088;&#1082;&#1072; &#1073;&#1077;&#1079;&#1086;&#1087;&#1072;&#1089;&#1085;&#1086;&#1089;&#1090;&#1080; &#1080; &#1087;&#1088;&#1086;&#1080;&#1079;&#1074;&#1086;&#1076;&#1080;&#1090;&#1077;&#1083;&#1100;&#1085;&#1086;&#1089;&#1090;&#1080;</text><polygon fill="#181818" points="148.5,1253.2109,138.5,1257.2109,148.5,1261.2109,144.5,1257.2109" style="stroke:#181818;stroke-width:1.0;"/><line style="stroke:#181818;stroke-width:1.0;" x1="142.5" x2="514" y1="1257.2109" y2="1257.2109"/><text fill="#000000" font-family="sans-serif" font-size="13" lengthAdjust="spacing" textLength="141" x="154.5" y="1252.145">&#1055;&#1088;&#1086;&#1074;&#1077;&#1088;&#1082;&#1072; &#1079;&#1072;&#1074;&#1077;&#1088;&#1096;&#1077;&#1085;&#1072;</text><polygon fill="#181818" points="503,1282.3438,513,1286.3438,503,1290.3438,507,1286.3438" style="stroke:#181818;stroke-width:1.0;"/><line style="stroke:#181818;stroke-width:1.0;" x1="137.5" x2="509" y1="1286.3438" y2="1286.3438"/><text fill="#000000" font-family="sans-serif" font-size="13" lengthAdjust="spacing" textLength="247" x="144.5" y="1281.2778">&#1058;&#1077;&#1089;&#1090;&#1080;&#1088;&#1086;&#1074;&#1072;&#1085;&#1080;&#1077; &#1089; &#1091;&#1095;&#1072;&#1089;&#1090;&#1080;&#1077;&#1084; &#1072;&#1091;&#1076;&#1080;&#1090;&#1086;&#1088;&#1080;&#1080;</text><polygon fill="#181818" points="148.5,1311.4766,138.5,1315.4766,148.5,1319.4766,144.5,1315.4766" style="stroke:#181818;stroke-width:1.0;"/><line style="stroke:#181818;stroke-width:1.0;" x1="142.5" x2="514" y1="1315.4766" y2="1315.4766"/><text fill="#000000" font-family="sans-serif" font-size="13" lengthAdjust="spacing" textLength="170" x="154.5" y="1310.4106">&#1058;&#1077;&#1089;&#1090;&#1080;&#1088;&#1086;&#1074;&#1072;&#1085;&#1080;&#1077; &#1079;&#1072;&#1074;&#1077;&#1088;&#1096;&#1077;&#1085;&#1086;</text><rect fill="#EEEEEE" height="3" style="stroke:#EEEEEE;stroke-width:1.0;" width="1835.5" x="0" y="1344.043"/><line style="stroke:#000000;stroke-width:1.0;" x1="0" x2="1835.5" y1="1344.043" y2="1344.043"/><line style="stroke:#000000;stroke-width:1.0;" x1="0" x2="1835.5" y1="1347.043" y2="1347.043"/><rect fill="#EEEEEE" height="23.1328" style="stroke:#000000;stroke-width:2.0;" width="64" x="885.75" y="1333.4766"/><text fill="#000000" font-family="sans-serif" font-size="13" font-weight="bold" lengthAdjust="spacing" textLength="45" x="891.75" y="1349.5435">&#1056;&#1077;&#1083;&#1080;&#1079;</text><polygon fill="#181818" points="383.5,1383.7422,393.5,1387.7422,383.5,1391.7422,387.5,1387.7422" style="stroke:#181818;stroke-width:1.0;"/><line style="stroke:#181818;stroke-width:1.0;" x1="137.5" x2="389.5" y1="1387.7422" y2="1387.7422"/><text fill="#000000" font-family="sans-serif" font-size="13" lengthAdjust="spacing" textLength="180" x="144.5" y="1382.6763">&#1056;&#1072;&#1079;&#1074;&#1077;&#1088;&#1090;&#1099;&#1074;&#1072;&#1085;&#1080;&#1077; &#1085;&#1072; &#1089;&#1077;&#1088;&#1074;&#1077;&#1088;&#1077;</text><polygon fill="#181818" points="148.5,1412.875,138.5,1416.875,148.5,1420.875,144.5,1416.875" style="stroke:#181818;stroke-width:1.0;"/><line style="stroke:#181818;stroke-width:1.0;" x1="142.5" x2="394.5" y1="1416.875" y2="1416.875"/><text fill="#000000" font-family="sans-serif" font-size="13" lengthAdjust="spacing" textLength="179" x="154.5" y="1411.8091">&#1056;&#1072;&#1079;&#1074;&#1077;&#1088;&#1090;&#1099;&#1074;&#1072;&#1085;&#1080;&#1077; &#1079;&#1072;&#1074;&#1077;&#1088;&#1096;&#1077;&#1085;&#1086;</text><polygon fill="#181818" points="1318.5,1442.0078,1328.5,1446.0078,1318.5,1450.0078,1322.5,1446.0078" style="stroke:#181818;stroke-width:1.0;"/><line style="stroke:#181818;stroke-width:1.0;" x1="137.5" x2="1324.5" y1="1446.0078" y2="1446.0078"/><text fill="#000000" font-family="sans-serif" font-size="13" lengthAdjust="spacing" textLength="231" x="144.5" y="1440.9419">&#1055;&#1086;&#1076;&#1082;&#1083;&#1102;&#1095;&#1077;&#1085;&#1080;&#1077; &#1082; &#1076;&#1086;&#1084;&#1077;&#1085;&#1085;&#1086;&#1084;&#1091; &#1080;&#1084;&#1077;&#1085;&#1080;</text><polygon fill="#181818" points="148.5,1471.1406,138.5,1475.1406,148.5,1479.1406,144.5,1475.1406" style="stroke:#181818;stroke-width:1.0;"/><line style="stroke:#181818;stroke-width:1.0;" x1="142.5" x2="1329.5" y1="1475.1406" y2="1475.1406"/><text fill="#000000" font-family="sans-serif" font-size="13" lengthAdjust="spacing" textLength="171" x="154.5" y="1470.0747">&#1055;&#1086;&#1076;&#1082;&#1083;&#1102;&#1095;&#1077;&#1085;&#1080;&#1077; &#1079;&#1072;&#1074;&#1077;&#1088;&#1096;&#1077;&#1085;&#1086;</text><polygon fill="#181818" points="797,1500.2734,807,1504.2734,797,1508.2734,801,1504.2734" style="stroke:#181818;stroke-width:1.0;"/><line style="stroke:#181818;stroke-width:1.0;" x1="137.5" x2="803" y1="1504.2734" y2="1504.2734"/><text fill="#000000" font-family="sans-serif" font-size="13" lengthAdjust="spacing" textLength="148" x="144.5" y="1499.2075">&#1055;&#1091;&#1073;&#1083;&#1080;&#1082;&#1072;&#1094;&#1080;&#1103; &#1085;&#1072; &#1088;&#1099;&#1085;&#1082;&#1077;</text><polygon fill="#181818" points="148.5,1529.4063,138.5,1533.4063,148.5,1537.4063,144.5,1533.4063" style="stroke:#181818;stroke-width:1.0;"/><line style="stroke:#181818;stroke-width:1.0;" x1="142.5" x2="808" y1="1533.4063" y2="1533.4063"/><text fill="#000000" font-family="sans-serif" font-size="13" lengthAdjust="spacing" textLength="159" x="154.5" y="1528.3403">&#1055;&#1091;&#1073;&#1083;&#1080;&#1082;&#1072;&#1094;&#1080;&#1103; &#1079;&#1072;&#1074;&#1077;&#1088;&#1096;&#1077;&#1085;&#1072;</text><polygon fill="#181818" points="1022.5,1558.5391,1032.5,1562.5391,1022.5,1566.5391,1026.5,1562.5391" style="stroke:#181818;stroke-width:1.0;"/><line style="stroke:#181818;stroke-width:1.0;" x1="809" x2="1028.5" y1="1562.5391" y2="1562.5391"/><text fill="#000000" font-family="sans-serif" font-size="13" lengthAdjust="spacing" textLength="158" x="816" y="1557.4731">&#1054;&#1073;&#1089;&#1083;&#1091;&#1078;&#1080;&#1074;&#1072;&#1085;&#1080;&#1077; &#1089;&#1077;&#1088;&#1074;&#1077;&#1088;&#1072;</text><polygon fill="#181818" points="1318.5,1587.6719,1328.5,1591.6719,1318.5,1595.6719,1322.5,1591.6719" style="stroke:#181818;stroke-width:1.0;"/><line style="stroke:#181818;stroke-width:1.0;" x1="1034.5" x2="1324.5" y1="1591.6719" y2="1591.6719"/><text fill="#000000" font-family="sans-serif" font-size="13" lengthAdjust="spacing" textLength="272" x="1041.5" y="1586.606">&#1055;&#1086;&#1076;&#1076;&#1077;&#1088;&#1078;&#1082;&#1072; &#1089;&#1077;&#1088;&#1074;&#1077;&#1088;&#1085;&#1086;&#1081; &#1080;&#1085;&#1092;&#1088;&#1072;&#1089;&#1090;&#1088;&#1091;&#1082;&#1090;&#1091;&#1088;&#1099;</text><rect fill="#EEEEEE" height="3" style="stroke:#EEEEEE;stroke-width:1.0;" width="1835.5" x="0" y="1620.2383"/><line style="stroke:#000000;stroke-width:1.0;" x1="0" x2="1835.5" y1="1620.2383" y2="1620.2383"/><line style="stroke:#000000;stroke-width:1.0;" x1="0" x2="1835.5" y1="1623.2383" y2="1623.2383"/><rect fill="#EEEEEE" height="23.1328" style="stroke:#000000;stroke-width:2.0;" width="241" x="797.25" y="1609.6719"/><text fill="#000000" font-family="sans-serif" font-size="13" font-weight="bold" lengthAdjust="spacing" textLength="222" x="803.25" y="1625.7388">&#1055;&#1086;&#1076;&#1076;&#1077;&#1088;&#1078;&#1082;&#1072; &#1080; &#1086;&#1073;&#1089;&#1083;&#1091;&#1078;&#1080;&#1074;&#1072;&#1085;&#1080;&#1077;</text><polygon fill="#181818" points="406.5,1659.9375,396.5,1663.9375,406.5,1667.9375,402.5,1663.9375" style="stroke:#181818;stroke-width:1.0;"/><line style="stroke:#181818;stroke-width:1.0;" x1="400.5" x2="1638" y1="1663.9375" y2="1663.9375"/><text fill="#000000" font-family="sans-serif" font-size="13" lengthAdjust="spacing" textLength="258" x="412.5" y="1658.8716">&#1056;&#1077;&#1075;&#1091;&#1083;&#1103;&#1088;&#1085;&#1086;&#1077; &#1086;&#1073;&#1085;&#1086;&#1074;&#1083;&#1077;&#1085;&#1080;&#1077; &#1080; &#1087;&#1086;&#1076;&#1076;&#1077;&#1088;&#1078;&#1082;&#1072;</text><polygon fill="#181818" points="1627,1689.0703,1637,1693.0703,1627,1697.0703,1631,1693.0703" style="stroke:#181818;stroke-width:1.0;"/><line style="stroke:#181818;stroke-width:1.0;" x1="395.5" x2="1633" y1="1693.0703" y2="1693.0703"/><text fill="#000000" font-family="sans-serif" font-size="13" lengthAdjust="spacing" textLength="256" x="402.5" y="1688.0044">&#1054;&#1073;&#1085;&#1086;&#1074;&#1083;&#1077;&#1085;&#1080;&#1077; &#1080; &#1087;&#1086;&#1076;&#1076;&#1077;&#1088;&#1078;&#1082;&#1072; &#1079;&#1072;&#1074;&#1077;&#1088;&#1096;&#1077;&#1085;&#1099;</text><!--SRC=[lLXTRXCn47xFAQm-mGCNg1JkKd409E00-Ii5XTA2a42LQDg2UAkq2RlD3yds2kCRyStOkzrulPlkOg8gLMAFvvjlF3CU- -Z5cvUlr05TwI6jAAKPFZ4jz80I-gC_A4hnDUOV52dTeuZcydyg4ojQ7AYZrwfgELsL5tIEBEG4uodzbjar_XQwhmT6dNSgNtX32V_6A4lDz7jQqCeiz4xb2x_WrnmgbxI1NCyiSGPpuSTvv9HMka_tc1bIX8b8luM-7LwvzI_AeSyX3T8mI8Yp6o2LwfwYRtHjT5VAi4YkwThC0dTD6pscfGBJYeL6Rsb5DL8pLu4lpyRiPBhZI313x92vB8xCGdoMzVwRk9ewdMwNJK-XAGP3c4g9ahKR-3QXU-DXrUrsciIgUlQyyIuUAhe4NWzIiQLZp153X9rYxdFPYKYVT9eYr5hbOG6BlcPWZ3p3jehdEU9va_VXatE0HO14ig6Em88D54IDkJUdNWGMfyyuRlGxfXwEk4z-ToIm5av9A3NAE7-v4lnFks3Mhnm_qcSbV1vAIuP79iacdCnI2tecQIsdDfdbBVCmhomlvSC0yrTPbo121Xn2NZKjl6AfbO-vg4saL97xZDYVIZ5d5VeOb3WL8Ge_cjA0McigBI3Nag831Wx7zAO4RCl2L4HRbOGglXKfS2f-vJ8qy_OLuSZU6YGzzaHr6wBU7gEQw0ZgKUkaVAMc5a4vV6-FsMN7hx45qv-rK0i_VydgGXFKAfET9khGSnZ71P78nFX0Al68dO1QZqnsrBHmGP48TEOsDATKss1L5IbcDHAXjJsnU1ysMPdl8UiCCagN7l8vsAa7Qk62yp8CTwe5PzITkqtJ-mTaPhOJY_EetzxjSBcyjRr35zh4iczZGfvEtwLkBJXYYuqcFAkU8DjxqdGEn1Nnqt3KBrXAILRdw5x0VV242WJNdZWwO7j9vAaCZfLD61HAVHm-LJ_nACCLKFuvKwlE9sTyUrVNSXHlYir6g5FfmbNFRfKMJWu0nwJiHAgojaqcD_M8x6p2IlB1WAVqZQkS- -qwVmJZEx5gkMJQA4_axdsFEEuN6uL5rcHpkNLXSxbmFYbPvbpKzf47kiz7oWcxWcVv1SHxDGiM1rNvw79FitCjiTVOu7Sj2uVCBDgnCMq3xudPcIHSfQ-1BTDlJBR18vRS-rZh2Xe_Ollp5cR5PJar5p1fuTPwo1sU6K0WD41fTHlrMXN0EyqVRoOOcKhmhSmebom9Z-mb9zd7AvRNZ0QLeiwINLt29Ux6VLbv1wbYrIWaIFIO5g5DS3wyTJefQQyMSk-GTTcxmSC5mpxRk6hCVT1Fggx0b1vVTvIN1AD3h3oprYO2ArzdXNjozXoyPMIRUbEopspUum1BuQJ7Vm40]--></g></svg>